HIERARCHY
ROOT Hips
{
	OFFSET 0.00000 0.00000 0.00000
	CHANNELS 6 Xposition Yposition Zposition Zrotation Yrotation Xrotation 
	JOINT LHipJoint
	{
		OFFSET 0 0 0
		CHANNELS 3 Zrotation Yrotation Xrotation
		JOINT LeftHip
		{
			OFFSET 1.48831 -1.59570 0.95625
			CHANNELS 3 Zrotation Yrotation Xrotation
			JOINT LeftKnee
			{
				OFFSET 2.20856 -6.06797 0.00000
				CHANNELS 3 Zrotation Yrotation Xrotation
				JOINT LeftAnkle
				{
					OFFSET 2.62924 -7.22379 0.00000
					CHANNELS 3 Zrotation Yrotation Xrotation
					JOINT LeftToe
					{
						OFFSET 0.16802 -0.46163 2.41673
						CHANNELS 3 Zrotation Yrotation Xrotation
						End Site
						{
							OFFSET 0.00000 -0.00000 1.23760
						}
					}
				}
			}
		}
	}
	JOINT RHipJoint
	{
		OFFSET 0 0 0
		CHANNELS 3 Zrotation Yrotation Xrotation
		JOINT RightHip
		{
			OFFSET -1.56796 -1.59570 0.95625
			CHANNELS 3 Zrotation Yrotation Xrotation
			JOINT RightKnee
			{
				OFFSET -2.29239 -6.29829 0.00000
				CHANNELS 3 Zrotation Yrotation Xrotation
				JOINT RightAnkle
				{
					OFFSET -2.66963 -7.33475 0.00000
					CHANNELS 3 Zrotation Yrotation Xrotation
					JOINT RightToe
					{
						OFFSET -0.18185 -0.49964 2.34359
						CHANNELS 3 Zrotation Yrotation Xrotation
						End Site
						{
							OFFSET -0.00000 -0.00000 1.20477
						}
					}
				}
			}
		}
	}
	JOINT lowerback
	{
		OFFSET 0 0 0
		CHANNELS 3 Zrotation Yrotation Xrotation
		JOINT Chest
		{
			OFFSET 0.03505 2.15832 -0.34324
			CHANNELS 3 Zrotation Yrotation Xrotation
			JOINT Chest2
			{
				OFFSET -0.01089 2.17963 0.04689
				CHANNELS 3 Zrotation Yrotation Xrotation
				JOINT lowerneck
				{
					OFFSET 0 0 0
					CHANNELS 3 Zrotation Yrotation Xrotation
					JOINT Neck
					{
						OFFSET 0.04686 1.69404 0.22159
						CHANNELS 3 Zrotation Yrotation Xrotation
						JOINT Head
						{
							OFFSET 0.00265 1.69305 -0.01513
							CHANNELS 3 Zrotation Yrotation Xrotation
							End Site
							{
								OFFSET -0.00415 1.80215 -0.03034
							}
						}
					}
				}
				JOINT LeftCollar
				{
					OFFSET 0 0 0
					CHANNELS 3 Zrotation Yrotation Xrotation
					JOINT LeftShoulder
					{
						OFFSET 3.67184 1.11724 -0.19002
CHANNELS 3 Zrotation Xrotation Yrotation
						JOINT LeftElbow
						{
OFFSET 0 -5.177140 -0.000000
CHANNELS 3 Zrotation Xrotation Yrotation
							JOINT LeftWrist
							{
OFFSET 0 -3.436790 -0.000000
CHANNELS 3 Zrotation Xrotation Yrotation
								JOINT lhand
								{
									OFFSET 0 0 0
CHANNELS 3 Zrotation Xrotation Yrotation
									JOINT LFingers
									{
OFFSET 0 -0.573120 -0.000000
CHANNELS 3 Zrotation Xrotation Yrotation
										End Site
										{
OFFSET 0 -0.462060 -0.000000
										}
									}
								}
								JOINT LThumb
								{
OFFSET 0 0.000000 0.000000
CHANNELS 3 Zrotation Xrotation Yrotation
									End Site
									{
OFFSET 0 -0.469120 0.469120
									}
								}
							}
						}
					}
				}
				JOINT RightCollar
				{
					OFFSET 0 0 0
					CHANNELS 3 Zrotation Yrotation Xrotation
					JOINT RightShoulder
					{
						OFFSET -3.59596 0.95831 -0.26050
CHANNELS 3 Zrotation Xrotation Yrotation
						JOINT RightElbow
						{
OFFSET 0 -5.239080 -0.000000
CHANNELS 3 Zrotation Xrotation Yrotation
							JOINT RightWrist
							{
OFFSET 0 -3.464850 -0.000000
CHANNELS 3 Zrotation Xrotation Yrotation
								JOINT rhand
								{
									OFFSET 0 0 0
CHANNELS 3 Zrotation Xrotation Yrotation
									JOINT RFingers
									{
OFFSET 0 -0.608750 -0.000000
CHANNELS 3 Zrotation Xrotation Yrotation
										End Site
										{
OFFSET 0 -0.490790 -0.000000
										}
									}
								}
								JOINT RThumb
								{
OFFSET 0 0.000000 0.000000
CHANNELS 3 Zrotation Xrotation Yrotation
									End Site
									{
OFFSET 0 -0.498290 0.498290
									}
								}
							}
						}
					}
				}
			}
		}
	}
}
MOTION
Frames: 11
Frame Time: 0.008333333333333333
49.983700 15.930400 17.228900 -174.635000 -39.297900 179.214000 0.000000 0.000000 0.000000 -16.454100 5.902200 -11.105900 2.386300 9.628200 27.781000 1.543200 -6.746200 -22.257700 0.000000 -0.020900 -0.057400 0.000000 0.000000 0.000000 22.500700 9.869700 -11.889400 -3.756300 -11.828800 35.129000 -1.842900 -2.539600 -26.666000 -0.000300 0.109300 -0.300300 4.863500 -0.202100 -5.528400 1.408000 -0.805500 2.915900 -1.347900 -0.255100 6.109700 2.015400 -0.783800 -10.293700 4.087700 -2.774500 18.623900 0.710700 -1.017700 7.462900 0.000000 -0.000000 0.000000 0.206400 0.334000 -19.964500 10.830500 -18.027900 1.723100 19.097000 -9.348900 -12.201600 0.000000 0.000000 0.000000 -7.125000 0.000000 0.000000 -7.358600 42.750400 -0.410900 0.000000 -0.000000 0.000000 -2.169100 -0.655700 17.666800 -19.527000 -30.068300 -5.292300 -20.121500 1.648100 8.365700 0.000000 0.000000 0.000000 7.125000 0.000000 -0.000000 5.840700 38.818700 0.893000
49.980654 15.932902 17.255059 -174.745247 -39.340757 179.265579 0.000000 0.000000 0.000000 -16.600263 5.932518 -11.178864 2.378933 9.614432 27.736962 1.526804 -6.832374 -22.131814 0.000644 -0.055352 -0.152097 0.000000 0.000000 0.000000 22.316195 9.854435 -11.933775 -3.751008 -11.821462 35.103351 -1.833931 -2.561538 -26.613198 -0.000344 0.117917 -0.323997 4.645261 -0.195107 -5.438384 1.284324 -0.760284 2.906816 -1.349223 -0.238170 6.050331 2.090540 -0.853114 -10.162783 3.919202 -2.840513 18.570072 0.637991 -1.061830 7.418878 0.000000 0.000000 0.000000 0.820716 0.002996 -21.722938 10.362562 -17.304404 1.581380 19.590834 -11.179559 -11.728143 0.000000 0.000000 0.000000 -7.125000 0.000000 0.000000 -6.830173 42.306553 -0.456352 0.000000 0.000000 0.000000 -2.211078 -0.717117 17.741857 -19.448971 -29.972712 -5.253258 -20.120797 1.753286 8.339084 0.000000 0.000000 0.000000 7.125000 0.000000 0.000000 5.837713 38.790544 0.896557
49.971764 15.946159 17.279851 -174.929389 -39.356326 179.435494 0.000000 0.000000 0.000000 -16.748369 5.147346 -11.103920 2.374654 9.606253 27.710868 1.481966 -7.009907 -21.790196 0.009473 0.624697 1.716668 0.000000 0.000000 0.000000 22.055492 9.860986 -11.966618 -3.718969 -11.776743 34.946601 -1.812472 -2.656231 -26.505031 -0.000511 0.149254 -0.410104 4.387043 -0.207423 -5.448876 1.168757 -0.744903 2.902510 -1.323540 -0.236330 6.052409 2.063946 -0.833013 -10.166029 3.844822 -2.784617 18.529262 0.623697 -1.041999 7.404173 0.000000 0.000000 0.000000 1.195182 -0.245871 -23.288294 9.944978 -16.653490 1.459178 19.819270 -12.627928 -11.687318 0.000000 0.000000 0.000000 -7.125000 0.000000 0.000000 -6.619609 42.286761 -0.445276 0.000000 0.000000 0.000000 -2.270504 -0.807611 17.798422 -19.340840 -29.839943 -5.199381 -20.122239 1.872792 8.384314 0.000000 0.000000 0.000000 7.125000 0.000000 0.000000 5.842570 38.838391 0.890380
49.966265 15.955803 17.303777 -175.107402 -39.376014 179.571372 0.000000 0.000000 0.000000 -16.912839 4.610755 -11.046525 2.367329 9.592592 27.667276 1.446922 -7.126175 -21.522443 0.028572 1.090674 2.998228 0.000000 0.000000 0.000000 21.822746 9.903393 -11.979400 -3.697796 -11.747027 34.842812 -1.799431 -2.759274 -26.458903 -0.000700 0.172801 -0.474769 4.148661 -0.216676 -5.408231 1.028246 -0.723297 2.906741 -1.333897 -0.230535 6.034054 2.052824 -0.834300 -10.100733 3.841504 -2.761153 18.346160 0.627705 -1.033028 7.332292 0.000000 0.000000 0.000000 1.307375 -0.446994 -23.175147 9.726184 -16.310137 1.397110 19.695173 -12.449551 -11.791028 0.000000 0.000000 0.000000 -7.125000 0.000000 0.000000 -6.748665 42.382958 -0.437928 0.000000 0.000000 0.000000 -2.243824 -0.874161 17.745273 -19.203336 -29.670588 -5.131168 -20.086842 1.987676 8.334142 0.000000 0.000000 0.000000 7.125000 0.000000 0.000000 5.866184 38.782839 0.902107
49.964866 15.957389 17.327903 -175.238738 -39.414465 179.610684 0.000000 0.000000 0.000000 -17.078463 4.631470 -11.057374 2.356371 9.571976 27.601603 1.430125 -7.196422 -21.392891 0.031034 1.137115 3.126240 0.000000 0.000000 0.000000 21.657341 9.974189 -11.970068 -3.699261 -11.749074 34.850136 -1.798989 -2.853030 -26.497127 -0.000700 0.174013 -0.478205 3.909857 -0.249644 -5.288223 0.926869 -0.734945 2.936788 -1.306038 -0.243009 5.996273 2.015643 -0.837571 -9.992163 3.829566 -2.718260 18.030736 0.635646 -1.017864 7.209563 0.000000 0.000000 0.000000 1.398853 -0.676439 -23.236223 9.563177 -16.053393 1.351681 19.687416 -12.457069 -11.827243 0.000000 0.000000 0.000000 -7.125000 0.000000 0.000000 -6.762161 42.420112 -0.432569 0.000000 0.000000 0.000000 -2.249319 -0.914720 17.708975 -19.055892 -29.488005 -5.058347 -20.018110 2.050357 8.271454 0.000000 0.000000 0.000000 7.125000 0.000000 0.000000 5.916799 38.711653 0.920313
49.962186 15.958256 17.351417 -175.365761 -39.433403 179.644915 0.000000 0.000000 0.000000 -17.251639 4.692196 -11.062325 2.344714 9.549917 27.531204 1.417648 -7.243705 -21.297294 0.033747 1.185228 3.258561 0.000000 0.000000 0.000000 21.490543 10.037882 -11.980137 -3.708463 -11.762010 34.895135 -1.799232 -2.920210 -26.528600 -0.000700 0.170768 -0.469247 3.694636 -0.285850 -5.181325 0.836538 -0.755774 2.975918 -1.280758 -0.259191 5.975443 1.995809 -0.860078 -9.833978 3.738679 -2.677516 17.614452 0.615527 -1.009890 7.044154 0.000000 0.000000 0.000000 1.399324 -0.905335 -22.955362 9.490165 -15.938168 1.331519 19.779429 -12.215013 -11.593341 0.000000 0.000000 0.000000 -7.125000 0.000000 0.000000 -6.638395 42.184248 -0.463374 0.000000 0.000000 0.000000 -2.267540 -0.908453 17.705061 -18.908298 -29.304504 -4.985867 -20.009388 2.146217 8.308887 0.000000 0.000000 0.000000 7.125000 0.000000 0.000000 5.929300 38.750480 0.916590
49.960233 15.958934 17.373519 -175.491778 -39.442643 179.692718 0.000000 0.000000 0.000000 -17.420141 4.773221 -11.082766 2.332155 9.526144 27.455496 1.405354 -7.319456 -21.201701 0.038705 1.270077 3.492313 0.000000 0.000000 0.000000 21.320818 10.075090 -12.027093 -3.719978 -11.778182 34.951688 -1.797364 -2.962858 -26.534495 -0.000700 0.168663 -0.463424 3.477539 -0.326361 -5.080647 0.750721 -0.783379 3.009685 -1.250408 -0.279212 5.952336 1.998326 -0.879661 -9.681708 3.663467 -2.635752 17.139543 0.597189 -0.998564 6.861824 0.000000 0.000000 0.000000 1.401235 -1.113439 -22.761453 9.512747 -15.973841 1.337746 19.661844 -12.007781 -11.667802 0.000000 0.000000 0.000000 -7.125000 0.000000 0.000000 -6.756202 42.250527 -0.460585 0.000000 0.000000 0.000000 -2.265868 -0.877916 17.680057 -18.732699 -29.085190 -4.900252 -20.048037 2.333028 8.376024 0.000000 0.000000 0.000000 7.125000 0.000000 0.000000 5.905100 38.824127 0.902096
49.960378 15.959946 17.394343 -175.614900 -39.457325 179.761745 0.000000 0.000000 0.000000 -17.575098 4.864306 -11.129754 2.318386 9.499929 27.371992 1.390329 -7.416767 -21.085905 0.043626 1.348279 3.707541 0.000000 0.000000 0.000000 21.154077 10.098288 -12.112831 -3.733325 -11.796808 35.016911 -1.794241 -2.982455 -26.521892 -0.000700 0.168935 -0.464126 3.260957 -0.351327 -4.987657 0.651701 -0.788882 3.017152 -1.231695 -0.288291 5.906935 2.050442 -0.914640 -9.467814 3.637374 -2.629170 16.597511 0.583838 -0.999583 6.648867 0.000000 0.000000 0.000000 1.529636 -1.304822 -23.197474 9.584521 -16.087005 1.357580 19.529784 -12.339668 -11.830130 0.000000 0.000000 0.000000 -7.125000 0.000000 0.000000 -6.903090 42.407060 -0.443969 0.000000 0.000000 0.000000 -2.197232 -0.795038 17.548561 -18.528013 -28.827911 -4.801149 -20.074342 2.515615 8.357467 0.000000 0.000000 0.000000 7.125000 0.000000 0.000000 5.879999 38.806600 0.900770
49.960566 15.960979 17.413232 -175.732581 -39.455336 179.837080 0.000000 0.000000 0.000000 -17.721168 4.948433 -11.178456 2.305063 9.474550 27.291243 1.376173 -7.491709 -20.976582 0.046558 1.392495 3.829410 0.000000 0.000000 0.000000 20.994018 10.120358 -12.202801 -3.746103 -11.814708 35.079646 -1.792163 -2.967531 -26.500247 -0.000600 0.157150 -0.431829 3.082218 -0.359821 -4.916699 0.530301 -0.774736 3.012142 -1.255637 -0.285589 5.861241 2.135486 -0.930158 -9.245165 3.596362 -2.605518 16.111611 0.561736 -0.992210 6.452771 0.000000 0.000000 0.000000 1.684342 -1.496738 -23.622784 9.714771 -16.292191 1.393848 19.551646 -12.701531 -11.710493 0.000000 0.000000 0.000000 -7.125000 0.000000 0.000000 -6.861943 42.284198 -0.462143 0.000000 0.000000 0.000000 -2.063998 -0.687566 17.302232 -18.271379 -28.503215 -4.678058 -20.055107 2.729622 8.341497 0.000000 0.000000 0.000000 7.125000 0.000000 0.000000 5.894427 38.788292 0.905666
49.959096 15.961600 17.430119 -175.849150 -39.399977 179.898050 0.000000 0.000000 0.000000 -17.866686 5.039121 -11.198170 2.292584 9.450669 27.215503 1.365392 -7.525404 -20.893334 0.049205 1.432167 3.938786 0.000000 0.000000 0.000000 20.841113 10.162970 -12.263126 -3.757312 -11.830317 35.134159 -1.787391 -2.962204 -26.464343 -0.000600 0.159823 -0.439164 2.913179 -0.352280 -4.857750 0.416567 -0.741246 3.002403 -1.275209 -0.273179 5.818477 2.202746 -0.915655 -9.062047 3.535773 -2.547003 15.749539 0.538594 -0.969357 6.303357 0.000000 0.000000 0.000000 1.784386 -1.724242 -23.830565 9.855769 -16.513664 1.433648 19.586077 -12.900091 -11.429774 0.000000 0.000000 0.000000 -7.125000 0.000000 0.000000 -6.781122 41.993753 -0.505494 0.000000 0.000000 0.000000 -1.943252 -0.550345 17.023790 -17.973354 -28.123027 -4.536690 -20.032494 2.947118 8.275526 0.000000 0.000000 0.000000 7.125000 0.000000 0.000000 5.905081 38.717016 0.917724
49.955885 15.961588 17.443305 -175.953574 -39.316374 179.926356 0.000000 0.000000 0.000000 -17.992738 5.136862 -11.169177 2.280627 9.427678 27.142552 1.358946 -7.544396 -20.843203 0.052291 1.475884 4.059198 0.000000 0.000000 0.000000 20.714073 10.211050 -12.269609 -3.765086 -11.841090 35.172064 -1.780963 -2.983210 -26.429277 -0.000868 0.190003 -0.522000 2.737480 -0.345415 -4.826294 0.324156 -0.711777 3.005603 -1.269565 -0.263129 5.805222 2.220319 -0.870447 -8.977094 3.535939 -2.463509 15.514001 0.543796 -0.930184 6.212935 0.000000 0.000000 0.000000 1.845749 -1.984567 -23.954391 10.009826 -16.754869 1.477795 19.561341 -13.057894 -11.160056 0.000000 0.000000 0.000000 -7.125000 0.000000 0.000000 -6.755977 41.708907 -0.551210 0.000000 0.000000 0.000000 -1.824423 -0.454900 16.666837 -17.600043 -27.641854 -4.362143 -20.024511 3.259269 8.170197 0.000000 0.000000 0.000000 7.125000 0.000000 0.000000 5.897859 38.605284 0.932786
